<svg class="navbar-logo-dark" xmlns="http://www.w3.org/2000/svg" width="150" height="40" viewBox="0 0 150 40" fill="none">
  <path d="M60.0019 15.233V15.2285L53.0023 2.3052C52.8646 2.05082 52.4838 2.11175 52.4321 2.39644L48.9462 21.5898C48.9121 21.7779 49.0564 21.951 49.2474 21.951H51.9444C52.0924 21.951 52.2191 21.845 52.2456 21.6993L54.2756 10.5003L59.732 20.9133C59.8466 21.1321 60.1595 21.1321 60.2741 20.9133L65.7306 10.5003L67.7606 21.6993C67.787 21.845 67.9138 21.951 68.0617 21.951H70.7587C70.9497 21.951 71.0941 21.7779 71.0599 21.5898L67.574 2.39644C67.5223 2.11175 67.1416 2.05082 67.0038 2.3052L60.0019 15.233Z" fill="#0E100F"></path>
  <path d="M82.4002 2.66682C76.848 2.66682 72.4987 6.98584 72.4987 12.5006C72.4987 18.0153 76.848 22.3367 82.4002 22.3367C87.938 22.3367 92.2766 18.0165 92.2766 12.5006C92.2766 6.98463 87.938 2.66682 82.4002 2.66682ZM82.4002 19.044C78.7796 19.044 75.9428 16.1695 75.9428 12.5006C75.9428 8.83169 78.7796 5.95956 82.4002 5.95956C86.0065 5.95956 88.8324 8.8329 88.8324 12.5006C88.8324 16.1683 86.0064 19.044 82.4002 19.044Z" fill="#0E100F"></path>
  <path d="M107.537 14.7563L95.9273 2.24691C95.738 2.04291 95.3969 2.17702 95.3969 2.45548V21.6446C95.3969 21.8139 95.534 21.9511 95.703 21.9511H98.5098C98.6788 21.9511 98.8159 21.8139 98.8159 21.6446V10.2234L110.4 22.7564C110.589 22.961 110.931 22.827 110.931 22.5483V3.35907C110.931 3.18984 110.794 3.05265 110.625 3.05265H107.843C107.674 3.05265 107.537 3.18984 107.537 3.35907V14.7563Z" fill="#0E100F"></path>
  <path d="M113.907 21.951H116.921C117.041 21.951 117.149 21.8815 117.199 21.773L119.457 16.8785H126.677L128.883 21.7706C128.933 21.8804 129.042 21.951 129.162 21.951H132.432C132.658 21.951 132.806 21.7147 132.708 21.5112L123.446 2.32323C123.334 2.09243 123.006 2.09243 122.894 2.32323L113.632 21.5112C113.534 21.7147 113.682 21.951 113.907 21.951ZM120.872 13.8417L123.116 8.96745L125.318 13.8417H120.872Z" fill="#0E100F"></path>
  <path d="M140.024 3.05256H135.392C135.223 3.05256 135.086 3.18975 135.086 3.35898V21.6445C135.086 21.8138 135.223 21.951 135.392 21.951H140.024C145.766 21.951 149.333 18.3301 149.333 12.5006C149.333 6.67097 145.766 3.05256 140.024 3.05256ZM140.024 18.7087H138.53V6.26959H140.024C143.751 6.26959 145.889 8.54085 145.889 12.5006C145.889 16.4458 143.751 18.7087 140.024 18.7087Z" fill="#0E100F"></path>
  <path d="M49.8931 37.8553V26.9462H57.1444V28.8479H52.2086V31.4473H56.6631V33.3489H52.2086V37.8553H49.8931Z" fill="#0E100F"></path>
  <path d="M68.7661 32.4008C68.7661 33.5904 68.5397 34.6025 68.0869 35.437C67.6377 36.2715 67.0245 36.9089 66.2473 37.3493C65.4737 37.7861 64.6038 38.0045 63.6377 38.0045C62.6644 38.0045 61.791 37.7843 61.0174 37.344C60.2438 36.9036 59.6324 36.2662 59.1832 35.4317C58.734 34.5972 58.5094 33.5869 58.5094 32.4008C58.5094 31.2112 58.734 30.1991 59.1832 29.3646C59.6324 28.53 60.2438 27.8944 61.0174 27.4576C61.791 27.0173 62.6644 26.7971 63.6377 26.7971C64.6038 26.7971 65.4737 27.0173 66.2473 27.4576C67.0245 27.8944 67.6377 28.53 68.0869 29.3646C68.5397 30.1991 68.7661 31.2112 68.7661 32.4008ZM66.4185 32.4008C66.4185 31.6302 66.3026 30.9803 66.0709 30.4512C65.8427 29.9221 65.5201 29.5208 65.103 29.2474C64.6858 28.9739 64.1974 28.8372 63.6377 28.8372C63.078 28.8372 62.5896 28.9739 62.1725 29.2474C61.7554 29.5208 61.4309 29.9221 61.1992 30.4512C60.971 30.9803 60.857 31.6302 60.857 32.4008C60.857 33.1714 60.971 33.8212 61.1992 34.3504C61.4309 34.8795 61.7554 35.2808 62.1725 35.5542C62.5896 35.8276 63.078 35.9643 63.6377 35.9643C64.1974 35.9643 64.6858 35.8276 65.103 35.5542C65.5201 35.2808 65.8427 34.8795 66.0709 34.3504C66.3026 33.8212 66.4185 33.1714 66.4185 32.4008Z" fill="#0E100F"></path>
  <path d="M77.246 26.9462H79.5615V34.0308C79.5615 34.8262 79.3708 35.5222 78.9893 36.1188C78.6114 36.7154 78.082 37.1806 77.4011 37.5144C76.7202 37.8447 75.9269 38.0098 75.0214 38.0098C74.1123 38.0098 73.3173 37.8447 72.6364 37.5144C71.9555 37.1806 71.426 36.7154 71.0481 36.1188C70.6702 35.5222 70.4813 34.8262 70.4813 34.0308V26.9462H72.7968V33.8337C72.7968 34.2491 72.8877 34.6185 73.0695 34.9416C73.2549 35.2648 73.5152 35.5187 73.8503 35.7033C74.1854 35.888 74.5758 35.9803 75.0214 35.9803C75.4706 35.9803 75.861 35.888 76.1925 35.7033C76.5276 35.5187 76.7861 35.2648 76.9679 34.9416C77.1533 34.6185 77.246 34.2491 77.246 33.8337V26.9462Z" fill="#0E100F"></path>
  <path d="M90.627 26.9462V37.8553H88.627L83.8623 30.9892H83.7821V37.8553H81.4666V26.9462H83.4987L88.226 33.807H88.3222V26.9462H90.627Z" fill="#0E100F"></path>
  <path d="M96.4225 37.8553H92.5401V26.9462H96.4545C97.5562 26.9462 98.5045 27.1646 99.2995 27.6014C100.094 28.0347 100.706 28.6579 101.134 29.4711C101.565 30.2843 101.781 31.2573 101.781 32.3901C101.781 33.5265 101.565 34.5031 101.134 35.3198C100.706 36.1366 100.091 36.7634 99.2888 37.2001C98.4902 37.6369 97.5348 37.8553 96.4225 37.8553ZM94.8556 35.8791H96.3262C97.0107 35.8791 97.5865 35.7584 98.0535 35.5169C98.5241 35.2719 98.877 34.8937 99.1123 34.3823C99.3512 33.8674 99.4706 33.2033 99.4706 32.3901C99.4706 31.584 99.3512 30.9253 99.1123 30.4139C98.877 29.9026 98.5259 29.5261 98.0588 29.2847C97.5918 29.0432 97.0161 28.9224 96.3316 28.9224H94.8556V35.8791Z" fill="#0E100F"></path>
  <path d="M104.766 37.8553H102.285L106.066 26.9462H109.049L112.825 37.8553H110.344L107.6 29.4391H107.515L104.766 37.8553ZM104.611 33.5673H110.472V35.3678H104.611V33.5673Z" fill="#0E100F"></path>
  <path d="M112.388 28.8479V26.9462H121.382V28.8479H118.029V37.8553H115.741V28.8479H112.388Z" fill="#0E100F"></path>
  <path d="M125.179 26.9462V37.8553H122.864V26.9462H125.179Z" fill="#0E100F"></path>
  <path d="M137.148 32.4008C137.148 33.5904 136.922 34.6025 136.469 35.437C136.02 36.2715 135.407 36.9089 134.63 37.3493C133.856 37.7861 132.986 38.0045 132.02 38.0045C131.047 38.0045 130.173 37.7843 129.4 37.344C128.626 36.9036 128.015 36.2662 127.566 35.4317C127.116 34.5972 126.892 33.5869 126.892 32.4008C126.892 31.2112 127.116 30.1991 127.566 29.3646C128.015 28.53 128.626 27.8944 129.4 27.4576C130.173 27.0173 131.047 26.7971 132.02 26.7971C132.986 26.7971 133.856 27.0173 134.63 27.4576C135.407 27.8944 136.02 28.53 136.469 29.3646C136.922 30.1991 137.148 31.2112 137.148 32.4008ZM134.801 32.4008C134.801 31.6302 134.685 30.9803 134.453 30.4512C134.225 29.9221 133.902 29.5208 133.485 29.2474C133.068 28.9739 132.58 28.8372 132.02 28.8372C131.46 28.8372 130.972 28.9739 130.555 29.2474C130.138 29.5208 129.813 29.9221 129.582 30.4512C129.353 30.9803 129.239 31.6302 129.239 32.4008C129.239 33.1714 129.353 33.8212 129.582 34.3504C129.813 34.8795 130.138 35.2808 130.555 35.5542C130.972 35.8276 131.46 35.9643 132.02 35.9643C132.58 35.9643 133.068 35.8276 133.485 35.5542C133.902 35.2808 134.225 34.8795 134.453 34.3504C134.685 33.8212 134.801 33.1714 134.801 32.4008Z" fill="#0E100F"></path>
  <path d="M148.024 26.9462V37.8553H146.024L141.259 30.9892H141.179V37.8553H138.864V26.9462H140.896L145.623 33.807H145.719V26.9462H148.024Z" fill="#0E100F"></path>
  <path d="M12.1374 17.8572C11.6811 19.5316 16.1828 27.4063 17.8572 27.8626C19.5316 28.3189 27.4062 23.8172 27.8626 22.1427C28.3189 20.4683 23.8172 12.5937 22.1427 12.1374C20.4683 11.6811 12.5938 16.1827 12.1374 17.8572Z" fill="#836EF9"></path>
  <path fill-rule="evenodd" clip-rule="evenodd" d="M5 0C2.23858 0 0 2.23858 0 5V35C0 37.7614 2.23858 40 5 40H35C37.7614 40 40 37.7614 40 35V5C40 2.23858 37.7614 0 35 0H5ZM6.25 19.9999C6.25 16.029 16.0292 6.25 19.9999 6.25C23.9708 6.25 33.75 16.0292 33.75 19.9999C33.75 23.9706 23.9706 33.75 19.9999 33.75C16.0292 33.75 6.25 23.9708 6.25 19.9999Z" fill="#836EF9"></path>
</svg>