<svg width="40" height="40" xmlns="http://www.w3.org/2000/svg" class="navbar-logo-dark">

 <g>
  <title>background</title>
  <rect fill="none" id="canvas_background" height="42" width="42" y="-1" x="-1"/>
 </g>
 <g>
  <title>Layer 1</title>
  <path id="svg_16" fill="#836EF9" d="m13.1374,18.8572c-0.4563,1.6744 4.0454,9.5491 5.7198,10.0054c1.6744,0.4563 9.549,-4.0454 10.0054,-5.7199c0.4563,-1.6744 -4.0454,-9.549 -5.7199,-10.0053c-1.6744,-0.4563 -9.5489,4.0453 -10.0053,5.7198z"/>
  <path id="svg_17" fill="#836EF9" d="m6,1c-2.76142,0 -5,2.23858 -5,5l0,30c0,2.7614 2.23858,5 5,5l30,0c2.7614,0 5,-2.2386 5,-5l0,-30c0,-2.76142 -2.2386,-5 -5,-5l-30,0zm1.25,19.9999c0,-3.9709 9.7792,-13.7499 13.7499,-13.7499c3.9709,0 13.7501,9.7792 13.7501,13.7499c0,3.9707 -9.7794,13.7501 -13.7501,13.7501c-3.9707,0 -13.7499,-9.7792 -13.7499,-13.7501z" clip-rule="evenodd" fill-rule="evenodd"/>
 </g>
</svg>